<mxfile host="app.diagrams.net" modified="2024-02-29T03:45:25.377Z" agent="Mozilla/5.0 (Windows NT 10.0; Win64; x64) AppleWebKit/537.36 (KHTML, like Gecko) Chrome/121.0.0.0 Safari/537.36" version="23.1.7" etag="apeiqBrCRKglf9-tRMQ9" type="github">
  <diagram name="Page-1" id="Kc6ih45dzMK9m0fjgTrX">
    <mxGraphModel>
      <root>
        <mxCell id="0" />
        <mxCell id="1" parent="0" />
      </root>
    </mxGraphModel>
  </diagram>
</mxfile>
